<svg xmlns="http://www.w3.org/2000/svg" xmlns:xlink="http://www.w3.org/1999/xlink" width="14.352" height="13.935" viewBox="0 0 14.352 13.935">
  <defs>
    <clipPath id="clip-path">
      <rect id="Прямоугольник_1653" data-name="Прямоугольник 1653" width="14.352" height="13.935" fill="#0264af"/>
    </clipPath>
  </defs>
  <g id="Сгруппировать_4539" data-name="Сгруппировать 4539" clip-path="url(#clip-path)">
    <path id="Контур_2525" data-name="Контур 2525" d="M55.829,80.427l-1.606-2-.781.626,2.021,2.52a.5.5,0,0,0,.391.188h.015a.5.5,0,0,0,.394-.211l3.276-4.62-.817-.579Z" transform="translate(-49.126 -70.184)" fill="#0264af"/>
    <path id="Контур_2526" data-name="Контур 2526" d="M124.915,2.859a.5.5,0,0,0,.5-.5V.5a.5.5,0,1,0-1,0V2.358a.5.5,0,0,0,.5.5" transform="translate(-114.367)" fill="#0264af"/>
    <path id="Контур_2527" data-name="Контур 2527" d="M12.45,11.712h-1v1h1a.963.963,0,0,1,.9,1.014V14.77H1V13.727a.963.963,0,0,1,.9-1.014h1v-1h-1A1.963,1.963,0,0,0,0,13.727v8.96A1.963,1.963,0,0,0,1.9,24.7H12.45a1.963,1.963,0,0,0,1.9-2.015v-8.96a1.963,1.963,0,0,0-1.9-2.015m0,11.988H1.9A.963.963,0,0,1,1,22.686V15.771h12.35v6.915a.963.963,0,0,1-.9,1.014" transform="translate(0 -10.766)" fill="#0264af"/>
    <rect id="Прямоугольник_1652" data-name="Прямоугольник 1652" width="4.94" height="1.001" transform="translate(4.706 0.946)" fill="#0264af"/>
    <path id="Контур_2528" data-name="Контур 2528" d="M41.42,2.859a.5.5,0,0,0,.5-.5V.5a.5.5,0,1,0-1,0V2.358a.5.5,0,0,0,.5.5" transform="translate(-37.615)" fill="#0264af"/>
  </g>
</svg>
