<svg xmlns="http://www.w3.org/2000/svg" xmlns:xlink="http://www.w3.org/1999/xlink" width="42.918" height="32.755" viewBox="0 0 42.918 32.755">
  <defs>
    <clipPath id="clip-path">
      <rect id="Прямоугольник_1182" data-name="Прямоугольник 1182" width="42.918" height="32.755" transform="translate(0 0)" fill="none"/>
    </clipPath>
  </defs>
  <g id="Сгруппировать_3480" data-name="Сгруппировать 3480" clip-path="url(#clip-path)">
    <path id="Контур_2151" data-name="Контур 2151" d="M286.963,92.63c9.89-12.208,14.3-14.151,25.261-11.706-9.1.062-17.877,8.112-25.592,23.128-2.527-5.691-6.193-12.2-11.374-15.924l4.408-3.081a37.82,37.82,0,0,1,7.3,7.583" transform="translate(-269.306 -78.273)" fill="#adbf00"/>
    <path id="Контур_2152" data-name="Контур 2152" d="M16.377,0A16.309,16.309,0,0,1,26.721,3.677c-.668.5-1.345,1.064-2.04,1.7a13.758,13.758,0,1,0,4.186,5.165q1-.96,2.01-1.784A16.381,16.381,0,1,1,16.377,0" transform="translate(0 0.002)" fill="#161615"/>
  </g>
</svg>
