<svg xmlns="http://www.w3.org/2000/svg" xmlns:xlink="http://www.w3.org/1999/xlink" width="18.132" height="17.308" viewBox="0 0 18.132 17.308">
  <defs>
    <clipPath id="clip-path">
      <rect id="Прямоугольник_1160" data-name="Прямоугольник 1160" width="18.132" height="17.308" fill="#0264af"/>
    </clipPath>
  </defs>
  <g id="Сгруппировать_3460" data-name="Сгруппировать 3460" clip-path="url(#clip-path)">
    <path id="Контур_2148" data-name="Контур 2148" d="M240.357,0H243.5a.361.361,0,0,1,.361.361V7.477a.361.361,0,0,1-.361.361h-3.143A.361.361,0,0,1,240,7.477V.361A.361.361,0,0,1,240.357,0m2.782.722h-2.421V7.116h2.421Z" transform="translate(-225.729)" fill="#0264af"/>
    <path id="Контур_2149" data-name="Контур 2149" d="M140.31,0h3.143a.361.361,0,0,1,.361.361V8.713a.361.361,0,0,1-.361.361H140.31a.361.361,0,0,1-.361-.361V.361A.361.361,0,0,1,140.31,0m2.782.722h-2.421V8.352h2.421Z" transform="translate(-131.629)" fill="#0264af"/>
    <path id="Контур_2150" data-name="Контур 2150" d="M2.683,0H5.619A.361.361,0,0,1,5.98.361V11.016H7.941a.361.361,0,0,1,.3.564L4.45,17.16a.375.375,0,0,1-.6,0L.063,11.58a.361.361,0,0,1,.3-.564H2.322V.361A.361.361,0,0,1,2.683,0M5.258.722H3.044V11.377a.361.361,0,0,1-.361.361H1.042l3.109,4.577L7.26,11.738H5.619a.361.361,0,0,1-.361-.361Z" transform="translate(0)" fill="#0264af"/>
  </g>
</svg>
