<svg xmlns="http://www.w3.org/2000/svg" xmlns:xlink="http://www.w3.org/1999/xlink" width="36.5" height="36.5" viewBox="0 0 36.5 36.5">
  <defs>
    <clipPath id="clip-path">
      <rect id="Прямоугольник_1223" data-name="Прямоугольник 1223" width="36.5" height="36.5" fill="none" stroke="#fff" stroke-width="2"/>
    </clipPath>
  </defs>
  <g id="Сгруппировать_3606" data-name="Сгруппировать 3606" clip-path="url(#clip-path)">
    <path id="Контур_2209" data-name="Контур 2209" d="M136.842,136.249a2.66,2.66,0,1,1-3.319,1.772A2.66,2.66,0,0,1,136.842,136.249Z" transform="translate(-118.086 -120.519)" fill="none" stroke="#fff" stroke-linecap="round" stroke-linejoin="round" stroke-width="2"/>
    <path id="Контур_2210" data-name="Контур 2210" d="M172.41,96.027l1.637-2.337,2.709-.477,1.575-2.549" transform="translate(-152.902 -79.93)" fill="none" stroke="#fff" stroke-linecap="round" stroke-linejoin="round" stroke-width="2"/>
    <path id="Контур_2211" data-name="Контур 2211" d="M183.689,76.981l-.477-2.709,1.815-2.327" transform="translate(-162.544 -63.222)" fill="none" stroke="#fff" stroke-linecap="round" stroke-linejoin="round" stroke-width="2"/>
    <path id="Контур_2212" data-name="Контур 2212" d="M116.246,80.419l-1.717-2.279.383-2.724-1.918-2.3" transform="translate(-99.864 -64.269)" fill="none" stroke="#fff" stroke-linecap="round" stroke-linejoin="round" stroke-width="2"/>
    <path id="Контур_2213" data-name="Контур 2213" d="M91.069,96.275l-2.724-.383-1.633-2.458" transform="translate(-76.404 -82.404)" fill="none" stroke="#fff" stroke-linecap="round" stroke-linejoin="round" stroke-width="2"/>
    <path id="Контур_2214" data-name="Контур 2214" d="M68.834,166.673l-2.7.928L63.664,166.4l-2.759,1.1" transform="translate(-53.367 -147.533)" fill="none" stroke="#fff" stroke-linecap="round" stroke-linejoin="round" stroke-width="2"/>
    <path id="Контур_2215" data-name="Контур 2215" d="M143.141,185.7l.049,2.853-1.911,1.978.214,2.951" transform="translate(-125.113 -164.761)" fill="none" stroke="#fff" stroke-linecap="round" stroke-linejoin="round" stroke-width="2"/>
    <path id="Контур_2216" data-name="Контур 2216" d="M159.082,212.268l1.978,1.911-.111,2.912" transform="translate(-141.005 -188.481)" fill="none" stroke="#fff" stroke-linecap="round" stroke-linejoin="round" stroke-width="2"/>
    <path id="Контур_2217" data-name="Контур 2217" d="M181.889,168.169l2.728.835,1.291,2.429,2.893.695" transform="translate(-161.363 -149.116)" fill="none" stroke="#fff" stroke-linecap="round" stroke-linejoin="round" stroke-width="2"/>
    <path id="Контур_2218" data-name="Контур 2218" d="M207.3,165.208l2.429-1.291,2.755.992" transform="translate(-184.049 -145.32)" fill="none" stroke="#fff" stroke-linecap="round" stroke-linejoin="round" stroke-width="2"/>
    <path id="Контур_2219" data-name="Контур 2219" d="M72.105,180.884l2.823-.78,1.206-2.472" transform="translate(-63.365 -157.563)" fill="none" stroke="#fff" stroke-linecap="round" stroke-linejoin="round" stroke-width="2"/>
    <circle id="Эллипс_19" data-name="Эллипс 19" cx="16.443" cy="16.443" r="16.443" transform="translate(-5.005 18.25) rotate(-45)" fill="none" stroke="#fff" stroke-linecap="round" stroke-linejoin="round" stroke-width="2"/>
    <circle id="Эллипс_20" data-name="Эллипс 20" cx="10.69" cy="10.69" r="10.69" transform="translate(2.996 16.259) rotate(-37.432)" fill="none" stroke="#fff" stroke-linecap="round" stroke-linejoin="round" stroke-width="2"/>
  </g>
</svg>
