<svg xmlns="http://www.w3.org/2000/svg" xmlns:xlink="http://www.w3.org/1999/xlink" width="26.889" height="24.256" viewBox="0 0 26.889 24.256">
  <defs>
    <clipPath id="clip-path">
      <rect id="Прямоугольник_1712" data-name="Прямоугольник 1712" width="26.889" height="24.256" fill="#fff" stroke="#fff" stroke-width="0.3"/>
    </clipPath>
  </defs>
  <g id="Сгруппировать_4690" data-name="Сгруппировать 4690" transform="translate(1 1)">
    <g id="Сгруппировать_4689" data-name="Сгруппировать 4689" transform="translate(-1 -1)" clip-path="url(#clip-path)">
      <path id="Контур_2600" data-name="Контур 2600" d="M1.855,9.662A.222.222,0,0,1,1.414,9.6a11.074,11.074,0,0,1,21.5-1.963h1.636a.223.223,0,0,1,.151.387l-3.033,3.2a.222.222,0,0,1-.314.008l-.008-.008L18.308,8.018a.222.222,0,0,1,.008-.314.23.23,0,0,1,.162-.062h1.437A8.27,8.27,0,0,0,4.239,9.671.223.223,0,0,1,3.8,9.6,8.716,8.716,0,0,1,20.455,7.769a.223.223,0,0,1-.2.319H18.987l2.526,2.662,2.526-2.662H22.774a.225.225,0,0,1-.23-.158A10.63,10.63,0,0,0,1.855,9.662m21.069,2.82a.222.222,0,1,1,.441.057A11.074,11.074,0,0,1,1.859,14.5H.223a.223.223,0,0,1-.151-.387l3.033-3.2a.222.222,0,0,1,.314-.008l.008.008,3.043,3.207a.222.222,0,0,1-.008.314.233.233,0,0,1-.179.062H4.864a8.27,8.27,0,0,0,15.675-2.029.223.223,0,0,1,.439.075A8.716,8.716,0,0,1,4.324,14.376a.223.223,0,0,1,.2-.319H5.792L3.266,11.4.741,14.057H1.993a.226.226,0,0,1,.241.158,10.63,10.63,0,0,0,20.69-1.732" transform="translate(1.055 1.055)" fill="#fff" stroke="#fff" stroke-width="0.3"/>
    </g>
  </g>
</svg>
