<svg xmlns="http://www.w3.org/2000/svg" xmlns:xlink="http://www.w3.org/1999/xlink" width="37.969" height="33.459" viewBox="0 0 37.969 33.459">
  <defs>
    <clipPath id="clip-path">
      <rect id="Прямоугольник_1290" data-name="Прямоугольник 1290" width="37.969" height="33.459" fill="#fff"/>
    </clipPath>
  </defs>
  <g id="Сгруппировать_3682" data-name="Сгруппировать 3682" clip-path="url(#clip-path)">
    <path id="Контур_2278" data-name="Контур 2278" d="M185,11.759h-3.915l6.191,6.191,6.191-6.191h-4.042c-1.715-11.17-16.345-16.192-24.382-6.93a14.793,14.793,0,0,0-3.409,8.819,10.943,10.943,0,0,1,1.085-4.218c5.177-10.475,19.84-7.955,22.28,2.329" transform="translate(-155.496 0)" fill="#fff"/>
    <path id="Контур_2279" data-name="Контур 2279" d="M8.467,414.646h3.915l-6.191-6.191L0,414.646H4.042c1.715,11.17,16.345,16.192,24.382,6.93a14.793,14.793,0,0,0,3.409-8.819,10.943,10.943,0,0,1-1.085,4.218c-5.177,10.475-19.84,7.955-22.28-2.329" transform="translate(0 -392.946)" fill="#fff"/>
  </g>
</svg>
