<svg xmlns="http://www.w3.org/2000/svg" xmlns:xlink="http://www.w3.org/1999/xlink" width="26.427" height="37.308" viewBox="0 0 26.427 37.308">
  <defs>
    <clipPath id="clip-path">
      <rect id="Прямоугольник_1222" data-name="Прямоугольник 1222" width="26.427" height="37.308" fill="#fff"/>
    </clipPath>
  </defs>
  <g id="Сгруппировать_3604" data-name="Сгруппировать 3604" clip-path="url(#clip-path)">
    <path id="Контур_2206" data-name="Контур 2206" d="M21.763,14.029V8.55a8.55,8.55,0,0,0-17.1,0v5.479a13.213,13.213,0,1,0,17.1,0M6.218,8.55a7,7,0,1,1,13.991,0v4.34a13.186,13.186,0,0,0-13.991,0Zm7,27.2A11.659,11.659,0,1,1,24.872,24.095,11.672,11.672,0,0,1,13.213,35.754" fill="#fff"/>
    <path id="Контур_2207" data-name="Контур 2207" d="M48.682,214.2a10.882,10.882,0,1,0,10.882,10.882A10.894,10.894,0,0,0,48.682,214.2m0,20.209a9.327,9.327,0,1,1,9.327-9.327,9.338,9.338,0,0,1-9.327,9.327" transform="translate(-35.468 -200.987)" fill="#fff"/>
    <path id="Контур_2208" data-name="Контур 2208" d="M157.3,269.186l-.528-3.171a1.695,1.695,0,0,0-3.344,0l-.528,3.169a3.876,3.876,0,0,0,1.284,6.968,4.043,4.043,0,0,0,.912.1,3.874,3.874,0,0,0,2.2-7.072m-.75,5.013a2.326,2.326,0,1,1-2.566-3.857l.329-.182.648-3.887a.14.14,0,0,1,.277,0l.648,3.888.329.182a2.317,2.317,0,0,1,.334,3.857" transform="translate(-141.892 -248.278)" fill="#fff"/>
    <rect id="Прямоугольник_1215" data-name="Прямоугольник 1215" width="1.555" height="1.555" transform="translate(20.209 23.318)" fill="#fff"/>
    <rect id="Прямоугольник_1216" data-name="Прямоугольник 1216" width="1.555" height="1.555" transform="translate(4.664 23.318)" fill="#fff"/>
    <rect id="Прямоугольник_1217" data-name="Прямоугольник 1217" width="1.555" height="1.555" transform="translate(12.436 31.09)" fill="#fff"/>
    <rect id="Прямоугольник_1218" data-name="Прямоугольник 1218" width="1.554" height="1.555" transform="translate(17.61 29.591) rotate(-45.002)" fill="#fff"/>
    <rect id="Прямоугольник_1219" data-name="Прямоугольник 1219" width="1.554" height="1.555" transform="matrix(0.707, -0.707, 0.707, 0.707, 6.618, 18.599)" fill="#fff"/>
    <rect id="Прямоугольник_1220" data-name="Прямоугольник 1220" width="1.555" height="1.554" transform="translate(6.618 29.591) rotate(-45)" fill="#fff"/>
    <rect id="Прямоугольник_1221" data-name="Прямоугольник 1221" width="1.555" height="1.554" transform="matrix(0.707, -0.707, 0.707, 0.707, 17.61, 18.599)" fill="#fff"/>
  </g>
</svg>
