<svg xmlns="http://www.w3.org/2000/svg" xmlns:xlink="http://www.w3.org/1999/xlink" width="19" height="19" viewBox="0 0 19 19">
  <defs>
    <clipPath id="clip-path">
      <rect id="Прямоугольник_34" data-name="Прямоугольник 34" width="19" height="19" transform="translate(0 0)" fill="none"/>
    </clipPath>
  </defs>
  <g id="Сгруппировать_35" data-name="Сгруппировать 35" transform="translate(0 0)" clip-path="url(#clip-path)">
    <path id="Контур_55" data-name="Контур 55" d="M350.434,149.112a29.452,29.452,0,0,0-2.765,3.566c-.688-.7-2.925-2.407-3.954-2.407a.627.627,0,0,0-.355.095.133.133,0,0,0-.058.127h0a.9.9,0,0,0,.325.493c.05.048.1.094.134.138l0,.005.005,0a18.285,18.285,0,0,1,3.688,4.831.532.532,0,0,0,.473.288h0a.533.533,0,0,0,.483-.308,28.28,28.28,0,0,1,6.717-9.557c.507-.47.717-.664.7-.86a.133.133,0,0,0-.078-.11.383.383,0,0,0-.157-.03,4.951,4.951,0,0,0-1.747.794h0a15.843,15.843,0,0,0-1.8,1.351,19.953,19.953,0,0,0-1.617,1.577" transform="translate(-339.172 -142.233)" fill="#0264af"/>
    <path id="Контур_56" data-name="Контур 56" d="M14.894,4.734a7.732,7.732,0,0,0-.682-1.269c-.173.172-.359.362-.556.574a6.984,6.984,0,1,1-1.932-2.02q.33-.252.663-.482A7.752,7.752,0,1,0,4.734,14.894a7.756,7.756,0,0,0,10.16-10.16" transform="translate(1.468 2.029)" fill="#0264af"/>
  </g>
</svg>
