<svg xmlns="http://www.w3.org/2000/svg" xmlns:xlink="http://www.w3.org/1999/xlink" width="23.028" height="23.572" viewBox="0 0 23.028 23.572">
  <defs>
    <clipPath id="clip-path">
      <rect id="Прямоугольник_1285" data-name="Прямоугольник 1285" width="23.028" height="23.572" fill="#1bc539"/>
    </clipPath>
  </defs>
  <g id="Сгруппировать_3664" data-name="Сгруппировать 3664" clip-path="url(#clip-path)">
    <path id="Контур_2278" data-name="Контур 2278" d="M17.465,21.965a2.212,2.212,0,0,0-2.692-.362c-.979.57-1.847,1.029-2.4,1.314a.809.809,0,0,1-.857-.072,17.739,17.739,0,0,1-4.8-6.113.81.81,0,0,1,.159-.943c.619-.6,1.316-1.42,1.793-2a2.225,2.225,0,0,0,.37-2.171,9.055,9.055,0,0,0-3.207-4.16,2.215,2.215,0,0,0-2.91.263A12.438,12.438,0,0,0,.82,10.81a8.072,8.072,0,0,0-.158,6.749,30.84,30.84,0,0,0,3.024,5.558,29.155,29.155,0,0,0,4.1,4.537,8.165,8.165,0,0,0,3.529,1.907,8.035,8.035,0,0,0,4.009-.025,22.984,22.984,0,0,0,3.332-1.175,2.21,2.21,0,0,0,1.161-2.851,11.058,11.058,0,0,0-2.35-3.545m.827,5.572a22.085,22.085,0,0,1-3.2,1.129,7.133,7.133,0,0,1-3.559.022,7.263,7.263,0,0,1-3.139-1.7A28.262,28.262,0,0,1,4.422,22.6a30.9,30.9,0,0,1-2.933-5.4,7.174,7.174,0,0,1,.139-6A11.541,11.541,0,0,1,3.573,8.342,1.314,1.314,0,0,1,5.3,8.188,8.16,8.16,0,0,1,8.19,11.929a1.323,1.323,0,0,1-.219,1.29c-.462.56-1.138,1.349-1.728,1.926a1.707,1.707,0,0,0-.335,1.988,18.644,18.644,0,0,0,5.067,6.433,1.7,1.7,0,0,0,1.8.151c.566-.29,1.45-.757,2.447-1.338a1.313,1.313,0,0,1,1.6.216,10.151,10.151,0,0,1,2.157,3.252,1.319,1.319,0,0,1-.689,1.69" transform="translate(0 -6.23)" fill="#1bc539"/>
    <path id="Контур_2279" data-name="Контур 2279" d="M110.339,57.441a3.125,3.125,0,0,1,2.538,3.612.45.45,0,1,0,.886.155,4.025,4.025,0,0,0-3.27-4.652.45.45,0,1,0-.155.886" transform="translate(-97.372 -50.072)" fill="#1bc539"/>
    <path id="Контур_2280" data-name="Контур 2280" d="M115.334,28.818a6.457,6.457,0,0,1,5.244,7.462.45.45,0,1,0,.886.155,7.349,7.349,0,0,0-5.976-8.5.45.45,0,0,0-.154.886" transform="translate(-101.796 -24.727)" fill="#1bc539"/>
    <path id="Контур_2281" data-name="Контур 2281" d="M127.21,4.352A10.526,10.526,0,0,0,120.363.007a.45.45,0,0,0-.155.886,9.7,9.7,0,0,1,7.884,11.218.45.45,0,1,0,.886.155,10.526,10.526,0,0,0-1.769-7.914" transform="translate(-106.111 0)" fill="#1bc539"/>
  </g>
</svg>
