<svg id="Сгруппировать_150" data-name="Сгруппировать 150" xmlns="http://www.w3.org/2000/svg" xmlns:xlink="http://www.w3.org/1999/xlink" width="27" height="23.132" viewBox="0 0 27 23.132">
  <defs>
    <clipPath id="clip-path">
      <rect id="Прямоугольник_98" data-name="Прямоугольник 98" width="27" height="23.132" transform="translate(0 0)" fill="#6cce7f"/>
    </clipPath>
  </defs>
  <g id="Сгруппировать_149" data-name="Сгруппировать 149" transform="translate(0 0)" clip-path="url(#clip-path)">
    <path id="Контур_98" data-name="Контур 98" d="M24.341,0H2.659A2.662,2.662,0,0,0,0,2.659V20.473a2.662,2.662,0,0,0,2.659,2.659H24.341A2.663,2.663,0,0,0,27,20.473V2.659A2.662,2.662,0,0,0,24.341,0m1.7,20.473a1.7,1.7,0,0,1-1.7,1.7H2.659a1.7,1.7,0,0,1-1.7-1.7V2.659a1.7,1.7,0,0,1,1.7-1.7H24.341a1.7,1.7,0,0,1,1.7,1.7ZM19.524,7.157H16.7a4.3,4.3,0,0,0,.943-.668,2.583,2.583,0,0,0,.853-1.85,1.855,1.855,0,0,0-.558-1.321h0a1.833,1.833,0,0,0-1.34-.512,2.591,2.591,0,0,0-1.826.923A5.448,5.448,0,0,0,13.579,6.46a5.484,5.484,0,0,0-1.053-2.819,2.593,2.593,0,0,0-1.774-1.014,1.86,1.86,0,0,0-1.363.44h0a1.853,1.853,0,0,0-.625,1.289,2.6,2.6,0,0,0,.763,1.9,4.614,4.614,0,0,0,1.215.9H7.559A1.309,1.309,0,0,0,6.251,8.465v2.023a1.31,1.31,0,0,0,.8,1.2v6.425a1.309,1.309,0,0,0,1.308,1.308H18.729a1.309,1.309,0,0,0,1.308-1.308V11.691a1.309,1.309,0,0,0,.8-1.2V8.465a1.309,1.309,0,0,0-1.308-1.308M15.406,4.319a1.788,1.788,0,0,1,1.208-.644,1,1,0,0,1,.714.269.987.987,0,0,1,.293.7,1.777,1.777,0,0,1-.595,1.223,4.606,4.606,0,0,1-2.61,1.089,4.6,4.6,0,0,1,.99-2.639M13.563,7.157h-.007l0-.027c0,.009,0,.018,0,.027M9.632,4.412A.959.959,0,0,1,10.685,3.5a1.784,1.784,0,0,1,1.171.7,4.619,4.619,0,0,1,.861,2.7A4.606,4.606,0,0,1,10.17,5.676a1.794,1.794,0,0,1-.538-1.264m9.1,14.139H8.355a.436.436,0,0,1-.436-.436V11.8h2.256v-.872H7.559a.436.436,0,0,1-.436-.436V8.465a.436.436,0,0,1,.436-.436H19.524a.436.436,0,0,1,.436.436v2.023a.436.436,0,0,1-.436.436H16.6V11.8h2.567v6.32a.436.436,0,0,1-.436.436m-5.333-6.6a1.256,1.256,0,0,0-1.161-1.33,1.256,1.256,0,0,0-1.161,1.33,1.256,1.256,0,0,0,1.161,1.33,1.256,1.256,0,0,0,1.161-1.33m-1.494,0c0-.3.175-.5.333-.5s.333.206.333.5-.175.5-.333.5-.333-.206-.333-.5m3.26,1.847A1.256,1.256,0,0,0,14,15.124a1.256,1.256,0,0,0,1.161,1.33,1.256,1.256,0,0,0,1.162-1.33A1.255,1.255,0,0,0,15.161,13.8m0,1.831c-.157,0-.333-.206-.333-.5s.175-.5.333-.5.333.206.333.5-.176.5-.333.5m.372-4.416-3.145,4.929a.414.414,0,1,1-.7-.446l3.144-4.929a.414.414,0,0,1,.7.445" transform="translate(0 0)" fill="#6cce7f"/>
  </g>
</svg>
