<svg xmlns="http://www.w3.org/2000/svg" xmlns:xlink="http://www.w3.org/1999/xlink" width="27" height="27" viewBox="0 0 27 27">
  <defs>
    <clipPath id="clip-path">
      <rect id="Прямоугольник_18" data-name="Прямоугольник 18" width="27" height="27" fill="#ffdb4c"/>
    </clipPath>
  </defs>
  <g id="Сгруппировать_15" data-name="Сгруппировать 15" clip-path="url(#clip-path)">
    <path id="Контур_15" data-name="Контур 15" d="M173.114,175.635a2.521,2.521,0,1,1,2.521-2.521,2.524,2.524,0,0,1-2.521,2.521m0-4.311a1.79,1.79,0,1,0,1.79,1.79,1.792,1.792,0,0,0-1.79-1.79" transform="translate(-159.614 -159.614)" fill="#ffdb4c"/>
    <path id="Контур_16" data-name="Контур 16" d="M189.5,188a1.5,1.5,0,1,1-1.5-1.5,1.5,1.5,0,0,1,1.5,1.5" transform="translate(-174.498 -174.497)" fill="#ffdb4c"/>
    <path id="Контур_17" data-name="Контур 17" d="M159.813,163.249a3.436,3.436,0,1,1,3.436-3.436,3.44,3.44,0,0,1-3.436,3.436m0-6.2a2.763,2.763,0,1,0,2.763,2.763,2.766,2.766,0,0,0-2.763-2.763" transform="translate(-146.313 -146.313)" fill="#ffdb4c"/>
    <path id="Контур_18" data-name="Контур 18" d="M146.511,150.863a4.351,4.351,0,1,1,4.351-4.351,4.356,4.356,0,0,1-4.351,4.351m0-8.087a3.736,3.736,0,1,0,3.736,3.736,3.74,3.74,0,0,0-3.736-3.736" transform="translate(-133.011 -133.012)" fill="#ffdb4c"/>
    <path id="Контур_19" data-name="Контур 19" d="M133.211,138.476a5.266,5.266,0,1,1,5.266-5.266,5.272,5.272,0,0,1-5.266,5.266m0-9.974a4.709,4.709,0,1,0,4.709,4.709,4.714,4.714,0,0,0-4.709-4.709" transform="translate(-119.711 -119.711)" fill="#ffdb4c"/>
    <path id="Контур_20" data-name="Контур 20" d="M119.909,126.09a6.181,6.181,0,1,1,6.181-6.181,6.188,6.188,0,0,1-6.181,6.181m0-11.862a5.681,5.681,0,1,0,5.681,5.681,5.688,5.688,0,0,0-5.681-5.681" transform="translate(-106.409 -106.41)" fill="#ffdb4c"/>
    <path id="Контур_21" data-name="Контур 21" d="M106.608,113.7a7.1,7.1,0,1,1,7.1-7.1,7.1,7.1,0,0,1-7.1,7.1m0-13.75a6.654,6.654,0,1,0,6.654,6.654,6.662,6.662,0,0,0-6.654-6.654" transform="translate(-93.108 -93.109)" fill="#ffdb4c"/>
    <path id="Контур_22" data-name="Контур 22" d="M93.306,101.318a8.01,8.01,0,1,1,8.01-8.01,8.02,8.02,0,0,1-8.01,8.01m0-15.637a7.627,7.627,0,1,0,7.627,7.627,7.635,7.635,0,0,0-7.627-7.627" transform="translate(-79.807 -79.807)" fill="#ffdb4c"/>
    <path id="Контур_23" data-name="Контур 23" d="M80.005,88.931a8.925,8.925,0,1,1,8.925-8.925,8.936,8.936,0,0,1-8.925,8.925m0-17.525a8.6,8.6,0,1,0,8.6,8.6,8.609,8.609,0,0,0-8.6-8.6" transform="translate(-66.505 -66.505)" fill="#ffdb4c"/>
    <path id="Контур_24" data-name="Контур 24" d="M66.7,76.546a9.84,9.84,0,1,1,9.84-9.84,9.851,9.851,0,0,1-9.84,9.84m0-19.413a9.572,9.572,0,1,0,9.572,9.572A9.583,9.583,0,0,0,66.7,57.133" transform="translate(-53.204 -53.205)" fill="#ffdb4c"/>
    <path id="Контур_25" data-name="Контур 25" d="M53.4,64.158A10.755,10.755,0,1,1,64.158,53.4,10.767,10.767,0,0,1,53.4,64.158m0-21.3A10.545,10.545,0,1,0,63.948,53.4,10.557,10.557,0,0,0,53.4,42.858" transform="translate(-39.903 -39.903)" fill="#ffdb4c"/>
    <path id="Контур_26" data-name="Контур 26" d="M40.1,51.773A11.67,11.67,0,1,1,51.772,40.1,11.683,11.683,0,0,1,40.1,51.773m0-23.188A11.518,11.518,0,1,0,51.62,40.1,11.531,11.531,0,0,0,40.1,28.585" transform="translate(-26.602 -26.603)" fill="#ffdb4c"/>
    <path id="Контур_27" data-name="Контур 27" d="M26.8,39.386A12.585,12.585,0,1,1,39.386,26.8,12.6,12.6,0,0,1,26.8,39.386m0-25.076A12.491,12.491,0,1,0,39.292,26.8,12.5,12.5,0,0,0,26.8,14.31" transform="translate(-13.301 -13.301)" fill="#ffdb4c"/>
    <path id="Контур_28" data-name="Контур 28" d="M13.5,27A13.5,13.5,0,0,1,3.954,3.955,13.5,13.5,0,1,1,23.046,23.047,13.411,13.411,0,0,1,13.5,27M13.5.037A13.463,13.463,0,0,0,3.98,23.021,13.463,13.463,0,0,0,23.02,3.981,13.375,13.375,0,0,0,13.5.037" transform="translate(0 -0.001)" fill="#ffdb4c"/>
  </g>
</svg>
