<svg xmlns="http://www.w3.org/2000/svg" xmlns:xlink="http://www.w3.org/1999/xlink" width="50" height="45.239" viewBox="0 0 50 45.239">
  <defs>
    <clipPath id="clip-path">
      <rect id="Прямоугольник_1295" data-name="Прямоугольник 1295" width="50" height="45.239" fill="#1bc539"/>
    </clipPath>
  </defs>
  <g id="Сгруппировать_3688" data-name="Сгруппировать 3688" clip-path="url(#clip-path)">
    <path id="Контур_2280" data-name="Контур 2280" d="M83.652,62.036A21.021,21.021,0,0,1,65.093,50.915a.872.872,0,1,1,1.537-.823,19.294,19.294,0,1,0,0-18.191.872.872,0,0,1-1.537-.823A21.039,21.039,0,1,1,83.652,62.036" transform="translate(-54.69 -16.797)" fill="#1bc539"/>
    <path id="Контур_2281" data-name="Контур 2281" d="M8.8,148.944H.872a.872.872,0,0,1,0-1.744H8.8a.872.872,0,1,1,0,1.744" transform="translate(0 -123.87)" fill="#1bc539"/>
    <path id="Контур_2282" data-name="Контур 2282" d="M37.35,178.944H29.426a.872.872,0,1,1,0-1.744H37.35a.872.872,0,1,1,0,1.744" transform="translate(-24.028 -149.115)" fill="#1bc539"/>
    <path id="Контур_2283" data-name="Контур 2283" d="M37.35,118.944H29.426a.872.872,0,1,1,0-1.744H37.35a.872.872,0,1,1,0,1.744" transform="translate(-24.028 -98.625)" fill="#1bc539"/>
    <path id="Контур_2284" data-name="Контур 2284" d="M140.712,54.641a.866.866,0,0,1-.488-.15,14.513,14.513,0,0,0-16.244,0A.872.872,0,1,1,123,53.047a16.255,16.255,0,0,1,18.2,0,.872.872,0,0,1-.489,1.594" transform="translate(-103.186 -42.296)" fill="#1bc539"/>
    <path id="Контур_2285" data-name="Контур 2285" d="M194.292,98.415a.872.872,0,0,1-.619-1.485l6.338-6.395a.872.872,0,1,1,1.238,1.227l-6.338,6.395a.869.869,0,0,1-.619.258" transform="translate(-162.765 -75.969)" fill="#1bc539"/>
    <path id="Контур_2286" data-name="Контур 2286" d="M158.673,133.137a4.54,4.54,0,1,1,4.54-4.539,4.545,4.545,0,0,1-4.54,4.539m0-7.336a2.8,2.8,0,1,0,2.8,2.8,2.8,2.8,0,0,0-2.8-2.8" transform="translate(-129.704 -104.396)" fill="#1bc539"/>
    <path id="Контур_2287" data-name="Контур 2287" d="M170.764,1.744h-3.17a.872.872,0,0,1,0-1.744h3.17a.872.872,0,1,1,0,1.744" transform="translate(-140.298)" fill="#1bc539"/>
    <path id="Контур_2288" data-name="Контур 2288" d="M177.594,4.913a.872.872,0,0,1-.872-.872V.872a.872.872,0,0,1,1.744,0v3.17a.872.872,0,0,1-.872.872" transform="translate(-148.713)" fill="#1bc539"/>
    <path id="Контур_2289" data-name="Контур 2289" d="M254.472,22.972a.865.865,0,0,1-.474-.141L251.34,21.1a.872.872,0,1,1,.95-1.462l2.659,1.726a.872.872,0,0,1-.476,1.6" transform="translate(-211.171 -16.411)" fill="#1bc539"/>
    <path id="Контур_2290" data-name="Контур 2290" d="M249.309,29.349a.872.872,0,0,1-.73-1.347l1.727-2.659a.872.872,0,0,1,1.462.95l-1.726,2.659a.871.871,0,0,1-.732.4" transform="translate(-209.063 -20.993)" fill="#1bc539"/>
    <path id="Контур_2291" data-name="Контур 2291" d="M87.193,23.255a.872.872,0,0,1-.476-1.6l2.658-1.726a.872.872,0,0,1,.95,1.462l-2.658,1.726a.868.868,0,0,1-.474.141" transform="translate(-72.64 -16.65)" fill="#1bc539"/>
    <path id="Контур_2292" data-name="Контур 2292" d="M97.306,29.631a.871.871,0,0,1-.732-.4l-1.726-2.659a.872.872,0,1,1,1.462-.95l1.727,2.659a.872.872,0,0,1-.73,1.347" transform="translate(-79.697 -21.23)" fill="#1bc539"/>
  </g>
</svg>
