<svg xmlns="http://www.w3.org/2000/svg" xmlns:xlink="http://www.w3.org/1999/xlink" width="44" height="54.779" viewBox="0 0 44 54.779">
  <defs>
    <clipPath id="clip-path">
      <rect id="Прямоугольник_1296" data-name="Прямоугольник 1296" width="44" height="54.779" transform="translate(-2 -2)" fill="#0264af" stroke="#0264af" stroke-width="1"/>
    </clipPath>
  </defs>
  <g id="Сгруппировать_3690" data-name="Сгруппировать 3690" transform="translate(2 2)" clip-path="url(#clip-path)">
    <path id="Контур_2293" data-name="Контур 2293" d="M605.061,810.158a.587.587,0,0,0-.83,0l-9.257,9.257a.587.587,0,0,0,.83.83l9.257-9.257a.587.587,0,0,0,0-.83" transform="translate(-572.166 -779.161)" fill="#0264af" stroke="#0264af" stroke-width="1"/>
    <path id="Контур_2294" data-name="Контур 2294" d="M737.183,952.408a3.282,3.282,0,1,0,4.642,0,3.261,3.261,0,0,0-4.642,0M741,956.219a2.107,2.107,0,1,1,0-2.982,2.111,2.111,0,0,1,0,2.982" transform="translate(-708.204 -915.239)" fill="#0264af" stroke="#0264af" stroke-width="1"/>
    <path id="Контур_2295" data-name="Контур 2295" d="M560.623,775.806a3.286,3.286,0,1,0-2.321.96,3.286,3.286,0,0,0,2.321-.96m-3.812-.83a2.108,2.108,0,1,1,2.982,0,2.111,2.111,0,0,1-2.982,0" transform="translate(-533.899 -740.893)" fill="#0264af" stroke="#0264af" stroke-width="1"/>
    <path id="Контур_2296" data-name="Контур 2296" d="M39.1,33.722a5.524,5.524,0,0,1-.606-1.137,5.826,5.826,0,0,1-.192-1.334,4.352,4.352,0,0,0-.62-2.35,4.368,4.368,0,0,0-2.057-1.321,5.717,5.717,0,0,1-1.2-.587,5.641,5.641,0,0,1-.912-.946,4.433,4.433,0,0,0-1.908-1.561,2.535,2.535,0,0,0-.652-.117q-.416-.622-.821-1.224C25.064,15.6,21.715,10.623,25.209.785a.587.587,0,0,0-.687-.768,18.115,18.115,0,0,0-6.743,3.47c-2.925,2.428-6.085,6.9-4.532,14.4a6.163,6.163,0,0,0,.336.915c.648,1.577,2,4.857.974,7.11a3.806,3.806,0,0,1-2.419,2.008,3.292,3.292,0,0,1-3.46-.4c-1.46-1.315-1.709-4.254-1.2-6.477a.587.587,0,0,0-.933-.594A16.95,16.95,0,0,0,27.253,47.289a3.387,3.387,0,0,1,.6-.062,5.907,5.907,0,0,1,1.356.233,4.323,4.323,0,0,0,2.4.139,4.433,4.433,0,0,0,1.908-1.561,5.639,5.639,0,0,1,.912-.946,5.713,5.713,0,0,1,1.2-.587,4.369,4.369,0,0,0,2.057-1.321,4.353,4.353,0,0,0,.619-2.35,5.823,5.823,0,0,1,.192-1.334,5.521,5.521,0,0,1,.606-1.137,4.455,4.455,0,0,0,.9-2.32,4.456,4.456,0,0,0-.9-2.32M1.174,33.83A15.663,15.663,0,0,1,6.089,22.386c-.176,2.225.289,4.643,1.8,6.007.813.733,2.276,1.438,4.625.635A4.979,4.979,0,0,0,15.626,26.4c1.232-2.715-.247-6.312-.957-8.041-.119-.288-.253-.615-.272-.706-1.149-5.549.231-10,4.1-13.232a17.332,17.332,0,0,1,5.238-2.931c-3.062,9.694.525,15.029,5.423,22.314l.484.72c-.146.033-.291.069-.435.105a5.908,5.908,0,0,1-1.356.233,5.908,5.908,0,0,1-1.356-.233,4.323,4.323,0,0,0-2.4-.139,4.433,4.433,0,0,0-1.908,1.561,5.635,5.635,0,0,1-.912.946,5.713,5.713,0,0,1-1.2.587A4.368,4.368,0,0,0,18.023,28.9a4.353,4.353,0,0,0-.619,2.35,5.823,5.823,0,0,1-.192,1.334,5.52,5.52,0,0,1-.606,1.137,4.456,4.456,0,0,0-.9,2.32,4.455,4.455,0,0,0,.9,2.32,5.52,5.52,0,0,1,.606,1.137,5.823,5.823,0,0,1,.192,1.334,4.352,4.352,0,0,0,.62,2.35A4.368,4.368,0,0,0,20.08,44.5a5.711,5.711,0,0,1,1.2.587,5.633,5.633,0,0,1,.912.946A4.433,4.433,0,0,0,24.1,47.6a2.445,2.445,0,0,0,.4.093,15.623,15.623,0,0,1-7.545,1.915A15.8,15.8,0,0,1,1.174,33.83M38.1,37.736a6.438,6.438,0,0,0-.73,1.4,6.755,6.755,0,0,0-.247,1.614,3.5,3.5,0,0,1-.4,1.743,3.5,3.5,0,0,1-1.547.923,6.645,6.645,0,0,0-1.449.726,6.557,6.557,0,0,0-1.123,1.143,3.5,3.5,0,0,1-1.368,1.2,3.475,3.475,0,0,1-1.753-.162,6.845,6.845,0,0,0-1.639-.268,6.849,6.849,0,0,0-1.639.268,3.474,3.474,0,0,1-1.753.162,3.5,3.5,0,0,1-1.369-1.2,6.558,6.558,0,0,0-1.123-1.143,6.645,6.645,0,0,0-1.449-.726,3.5,3.5,0,0,1-1.547-.923,3.5,3.5,0,0,1-.4-1.742,6.755,6.755,0,0,0-.247-1.614,6.437,6.437,0,0,0-.73-1.4,3.509,3.509,0,0,1-.721-1.694,3.51,3.51,0,0,1,.721-1.694,6.435,6.435,0,0,0,.73-1.4,6.755,6.755,0,0,0,.247-1.614,3.5,3.5,0,0,1,.4-1.742,3.5,3.5,0,0,1,1.547-.923,6.643,6.643,0,0,0,1.449-.726A6.555,6.555,0,0,0,23.091,26.8a3.5,3.5,0,0,1,1.369-1.2,1.464,1.464,0,0,1,.453-.064,5.762,5.762,0,0,1,1.3.226,6.846,6.846,0,0,0,1.639.268,6.845,6.845,0,0,0,1.639-.268,3.474,3.474,0,0,1,1.753-.162,3.5,3.5,0,0,1,1.369,1.2,6.56,6.56,0,0,0,1.123,1.143,6.645,6.645,0,0,0,1.449.726,3.5,3.5,0,0,1,1.547.923,3.494,3.494,0,0,1,.4,1.742,6.754,6.754,0,0,0,.247,1.614,6.435,6.435,0,0,0,.73,1.4,3.51,3.51,0,0,1,.721,1.694,3.51,3.51,0,0,1-.721,1.694" transform="translate(0 -0.002)" fill="#0264af" stroke="#0264af" stroke-width="1"/>
  </g>
</svg>
