<svg xmlns="http://www.w3.org/2000/svg" xmlns:xlink="http://www.w3.org/1999/xlink" width="69.357" height="27.74" viewBox="0 0 69.357 27.74">
  <defs>
    <clipPath id="clip-path">
      <rect id="Прямоугольник_1297" data-name="Прямоугольник 1297" width="69.357" height="27.74" fill="#1bc539"/>
    </clipPath>
  </defs>
  <g id="Сгруппировать_3692" data-name="Сгруппировать 3692" clip-path="url(#clip-path)">
    <path id="Контур_2297" data-name="Контур 2297" d="M36.643,37.973a13.977,13.977,0,0,1-11.165-5.615l-5.695,3.093a1.574,1.574,0,0,1-2.1-.569L15.338,31,2.26,37.348A1.573,1.573,0,0,1,.887,34.517l14.369-6.972a1.573,1.573,0,0,1,2.032.6L19.6,31.97l5.641-3.063a1.574,1.574,0,0,1,2.109.59,10.727,10.727,0,0,0,19.963-6.28,1.573,1.573,0,1,1,3.134-.262A13.868,13.868,0,0,1,37.775,37.926q-.568.048-1.132.047" transform="translate(0 -10.233)" fill="#1bc539"/>
    <path id="Контур_2298" data-name="Контур 2298" d="M45.016,16.461a1.573,1.573,0,0,1-1.566-1.443A13.871,13.871,0,0,1,68.337,5.5l5.131-3.431a1.571,1.571,0,0,1,2.195.454l2.916,4.506,7-4.458a1.573,1.573,0,1,1,1.69,2.653l-8.317,5.3a1.572,1.572,0,0,1-2.165-.473l-2.9-4.476L68.781,8.992a1.573,1.573,0,0,1-2.233-.515,10.728,10.728,0,0,0-19.963,6.281,1.572,1.572,0,0,1-1.437,1.7c-.045,0-.088.006-.132.006" transform="translate(-20.647 0)" fill="#1bc539"/>
    <path id="Контур_2299" data-name="Контур 2299" d="M118.443,13.18a1.6,1.6,0,0,1-.3-.029,1.572,1.572,0,0,1-1.245-1.843l1.311-6.757h-5.927a1.573,1.573,0,0,1,0-3.146h9.741l-2.037,10.5a1.573,1.573,0,0,1-1.542,1.274" transform="translate(-52.665 -0.668)" fill="#1bc539"/>
  </g>
</svg>
