<?xml version="1.0" encoding="UTF-8" standalone="no" ?>
<!DOCTYPE svg PUBLIC "-//W3C//DTD SVG 1.1//EN" "http://www.w3.org/Graphics/SVG/1.1/DTD/svg11.dtd">
<svg xmlns="http://www.w3.org/2000/svg" xmlns:xlink="http://www.w3.org/1999/xlink" version="1.1" width="100" height="45" viewBox="0 0 100 45" xml:space="preserve">
<desc>Created with Fabric.js 3.6.6</desc>
<defs>
</defs>
<g transform="matrix(0.66 0 0 0.66 49.74 23.06)"  >
<g style=""   >
		<g transform="matrix(1 0 0 1 61.63 -0.06)"  >
<path style="stroke: none; stroke-width: 1; stroke-dasharray: none; stroke-linecap: butt; stroke-dashoffset: 0; stroke-linejoin: miter; stroke-miterlimit: 4; fill: rgb(0,0,0); fill-rule: nonzero; opacity: 1;"  transform=" translate(-129.17, -8.94)" d="M 128.071 0.627917 L 128.016 0.51123 H 124.097 L 130.279 17.2558 V 17.3725 H 134.253 L 128.071 0.627917 Z" stroke-linecap="round" />
</g>
		<g transform="matrix(1 0 0 1 51.11 -0.06)"  >
<path style="stroke: none; stroke-width: 1; stroke-dasharray: none; stroke-linecap: butt; stroke-dashoffset: 0; stroke-linejoin: miter; stroke-miterlimit: 4; fill: rgb(0,0,0); fill-rule: nonzero; opacity: 1;"  transform=" translate(-118.66, -8.94)" d="M 117.528 0.569574 L 112.726 17.3725 H 116.369 L 120.123 4.94532 H 124.594 L 122.993 0.51123 L 117.528 0.569574 Z" stroke-linecap="round" />
</g>
		<g transform="matrix(1 0 0 1 -55.53 -3.27)"  >
<path style="stroke: none; stroke-width: 1; stroke-dasharray: none; stroke-linecap: butt; stroke-dashoffset: 0; stroke-linejoin: miter; stroke-miterlimit: 4; fill: rgb(0,0,0); fill-rule: nonzero; opacity: 1;"  transform=" translate(-12.02, -5.73)" d="M 4.42913 8.56261 L 4.37393 8.50427 V 5.29538 L 6.25064 3.19502 H 17.6765 L 23.1962 8.97102 V 3.31171 L 20.4363 0.569574 L 3.38038 0.51123 L 0.841309 3.31171 V 6.98734 L 4.42913 10.9547 V 8.56261 Z" stroke-linecap="round" />
</g>
		<g transform="matrix(1 0 0 1 -55.5 3.12)"  >
<path style="stroke: none; stroke-width: 1; stroke-dasharray: none; stroke-linecap: butt; stroke-dashoffset: 0; stroke-linejoin: miter; stroke-miterlimit: 4; fill: rgb(0,0,0); fill-rule: nonzero; opacity: 1;"  transform=" translate(-12.05, -12.12)" d="M 19.6636 12.6467 H 19.6084 V 12.7633 L 17.6213 14.6303 H 6.19544 L 0.841309 8.44594 V 14.572 L 3.60117 17.3725 H 20.4363 L 23.2514 14.5136 V 10.488 L 19.6636 6.87067 V 12.6467 Z" stroke-linecap="round" />
</g>
		<g transform="matrix(1 0 0 1 1.38 -3.27)"  >
<path style="stroke: none; stroke-width: 1; stroke-dasharray: none; stroke-linecap: butt; stroke-dashoffset: 0; stroke-linejoin: miter; stroke-miterlimit: 4; fill: rgb(0,0,0); fill-rule: nonzero; opacity: 1;"  transform=" translate(-68.93, -5.73)" d="M 61.3927 8.56261 L 61.3375 8.50427 V 5.29538 L 63.2142 3.19502 H 74.5849 L 80.1046 8.97102 V 3.31171 L 77.3999 0.569574 L 60.344 0.51123 L 57.7497 3.31171 V 6.98734 L 61.3927 10.9547 V 8.56261 Z" stroke-linecap="round" />
</g>
		<g transform="matrix(1 0 0 1 1.41 3.12)"  >
<path style="stroke: none; stroke-width: 1; stroke-dasharray: none; stroke-linecap: butt; stroke-dashoffset: 0; stroke-linejoin: miter; stroke-miterlimit: 4; fill: rgb(0,0,0); fill-rule: nonzero; opacity: 1;"  transform=" translate(-68.95, -12.12)" d="M 76.6272 12.6467 H 76.572 V 12.7633 L 74.5849 14.6303 H 63.159 L 57.7497 8.44594 V 14.572 L 60.5096 17.3725 H 77.3999 L 80.1598 14.5136 V 10.488 L 76.6272 6.87067 V 12.6467 Z" stroke-linecap="round" />
</g>
		<g transform="matrix(1 0 0 1 -21.17 0)"  >
<path style="stroke: none; stroke-width: 1; stroke-dasharray: none; stroke-linecap: butt; stroke-dashoffset: 0; stroke-linejoin: miter; stroke-miterlimit: 4; fill: rgb(0,0,0); fill-rule: nonzero; opacity: 1;"  transform=" translate(-46.38, -9)" d="M 43.1224 0.51123 L 40.9697 12.1799 L 41.8529 17.3141 L 43.3432 17.3725 L 45.4959 4.94532 H 48.2005 V 17.4891 H 51.7884 V 3.37005 L 49.3045 0.51123 H 43.1224 Z" stroke-linecap="round" />
</g>
		<g transform="matrix(1 0 0 1 -32.62 0.03)"  >
<path style="stroke: none; stroke-width: 1; stroke-dasharray: none; stroke-linecap: butt; stroke-dashoffset: 0; stroke-linejoin: miter; stroke-miterlimit: 4; fill: rgb(0,0,0); fill-rule: nonzero; opacity: 1;"  transform=" translate(-34.93, -9.03)" d="M 31.3654 0.569568 L 28.9367 3.48674 V 17.4308 H 29.1575 C 29.4887 17.4308 31.255 17.4308 32.4141 17.4308 H 32.5797 V 5.00366 H 35.2844 L 37.2715 17.4891 H 40.9145 L 37.9338 0.569568 H 31.3654 Z" stroke-linecap="round" />
</g>
		<g transform="matrix(1 0 0 1 30.11 -0.06)"  >
<path style="stroke: none; stroke-width: 1; stroke-dasharray: none; stroke-linecap: butt; stroke-dashoffset: 0; stroke-linejoin: miter; stroke-miterlimit: 4; fill: rgb(0,0,0); fill-rule: nonzero; opacity: 1;"  transform=" translate(-97.66, -8.94)" d="M 101.521 0.51123 L 105.219 3.54508 V 12.705 L 102.57 14.6303 H 90.2057 V 3.31171 H 103.177 L 99.81 0.51123 H 86.4523 V 17.3725 H 106.213 L 108.862 14.572 V 3.31171 L 105.495 0.51123 H 101.521 Z" stroke-linecap="round" />
</g>
</g>
</g>
</svg>